<svg width="114" height="114" viewBox="0 0 114 114" fill="none" xmlns="http://www.w3.org/2000/svg">
<path d="M43.035 56.525L81.3675 18.24C82.617 16.9501 84.1107 15.9217 85.7616 15.2148C87.4125 14.5078 89.1875 14.1364 90.9833 14.1221C92.7791 14.1078 94.5598 14.451 96.2217 15.1317C97.8836 15.8123 99.3934 16.8168 100.663 18.0867C101.933 19.3566 102.938 20.8664 103.618 22.5283C104.299 24.1902 104.642 25.9709 104.628 27.7667C104.614 29.5625 104.242 31.3375 103.535 32.9884C102.828 34.6393 101.8 36.133 100.51 37.3825L62.225 75.7625" stroke="#006FFF" stroke-width="6" stroke-linecap="round" stroke-linejoin="round"/>
<path d="M33.5825 70.965C25.6975 70.965 19.3325 77.3775 19.3325 85.31C19.3325 91.6275 7.45751 92.53 9.83251 94.905C14.9625 100.13 21.66 104.5 28.8325 104.5C39.2825 104.5 47.8325 95.95 47.8325 85.31C47.8388 83.4324 47.4751 81.572 46.7624 79.835C46.0496 78.0979 45.0017 76.5183 43.6785 75.1862C42.3552 73.8541 40.7826 72.7958 39.0503 72.0715C37.3181 71.3472 35.4601 70.9712 33.5825 70.965Z" stroke="#006FFF" stroke-width="6" stroke-linecap="round" stroke-linejoin="round"/>
</svg>
