<svg width="377" height="232" viewBox="0 0 377 232" fill="none" xmlns="http://www.w3.org/2000/svg">
<circle cx="336.5" cy="19.5" r="4.5" fill="#040404"/>
<circle cx="370.5" cy="96.5" r="3.5" fill="#626262"/>
<circle cx="366.5" cy="77.5" r="3.5" fill="#F17105"/>
<circle cx="358" cy="44" r="4" fill="#E6C229"/>
<circle cx="333" cy="38" r="4" fill="#626262"/>
<circle cx="360.5" cy="9.5" r="5.5" fill="#1A8FE3"/>
<circle cx="318.5" cy="24.5" r="5.5" fill="#040404"/>
<circle cx="360.5" cy="60.5" r="5.5" fill="#040404"/>
<circle cx="350" cy="29" r="9" fill="#D11149"/>
<circle cx="366.5" cy="30.5" r="3.5" fill="#626262"/>
<circle cx="324.5" cy="11.5" r="3.5" fill="#626262"/>
<circle cx="345.5" cy="51.5" r="3.5" fill="#1A8FE3"/>
<circle cx="338.5" cy="6.5" r="3.5" fill="#E6C229"/>
<circle cx="309.5" cy="7.5" r="3.5" fill="#F17105"/>
<circle cx="372.5" cy="51.5" r="3.5" fill="#040404"/>
<circle cx="293.5" cy="10.5" r="3.5" fill="#E6C229"/>
<circle cx="374" cy="116" r="2" fill="#D11149"/>
<circle cx="262" cy="3" r="2" fill="#D11149"/>
<circle cx="279" cy="6" r="3" fill="#626262"/>
<circle cx="305.5" cy="20.5" r="3.5" fill="#1A8FE3"/>
</svg>
