<svg width="114" height="114" viewBox="0 0 114 114" fill="none" xmlns="http://www.w3.org/2000/svg">
<path d="M63.65 9.5H28.5C25.9804 9.5 23.5641 10.5009 21.7825 12.2825C20.0009 14.0641 19 16.4804 19 19V95C19 97.5196 20.0009 99.9359 21.7825 101.718C23.5641 103.499 25.9804 104.5 28.5 104.5H85.5C88.0196 104.5 90.4359 103.499 92.2175 101.718C93.9991 99.9359 95 97.5196 95 95V59.85" stroke="#006FFF" stroke-width="6" stroke-linecap="round" stroke-linejoin="round"/>
<path d="M9.5 28.5H28.5" stroke="#006FFF" stroke-width="6" stroke-linecap="round" stroke-linejoin="round"/>
<path d="M9.5 47.5H28.5" stroke="#006FFF" stroke-width="6" stroke-linecap="round" stroke-linejoin="round"/>
<path d="M9.5 66.5H28.5" stroke="#006FFF" stroke-width="6" stroke-linecap="round" stroke-linejoin="round"/>
<path d="M9.5 85.5H28.5" stroke="#006FFF" stroke-width="6" stroke-linecap="round" stroke-linejoin="round"/>
<path d="M87.4 12.35C89.38 11.072 91.7381 10.511 94.0815 10.7606C96.4249 11.0102 98.612 12.0553 100.278 13.7216C101.945 15.388 102.99 17.5751 103.239 19.9185C103.489 22.2619 102.928 24.62 101.65 26.6L76 52.25L57 57L61.75 38L87.4 12.35Z" stroke="#006FFF" stroke-width="6" stroke-linecap="round" stroke-linejoin="round"/>
</svg>
